<?xml version="1.0" encoding="utf-8" standalone="no"?>
<!DOCTYPE svg PUBLIC "-//W3C//DTD SVG 1.1//EN"
  "http://www.w3.org/Graphics/SVG/1.1/DTD/svg11.dtd">
<svg xmlns:xlink="http://www.w3.org/1999/xlink" width="864pt" height="576pt" viewBox="0 0 864 576" xmlns="http://www.w3.org/2000/svg" version="1.1">
 <metadata>
  <rdf:RDF xmlns:dc="http://purl.org/dc/elements/1.1/" xmlns:cc="http://creativecommons.org/ns#" xmlns:rdf="http://www.w3.org/1999/02/22-rdf-syntax-ns#">
   <cc:Work>
    <dc:type rdf:resource="http://purl.org/dc/dcmitype/StillImage"/>
    <dc:date>2024-02-26T19:57:04.209715</dc:date>
    <dc:format>image/svg+xml</dc:format>
    <dc:creator>
     <cc:Agent>
      <dc:title>Matplotlib v3.8.0, https://matplotlib.org/</dc:title>
     </cc:Agent>
    </dc:creator>
   </cc:Work>
  </rdf:RDF>
 </metadata>
 <defs>
  <style type="text/css">*{stroke-linejoin: round; stroke-linecap: butt}</style>
 </defs>
 <g id="figure_1">
  <g id="patch_1">
   <path d="M 0 576 
L 864 576 
L 864 0 
L 0 0 
z
" style="fill: #ffffff"/>
  </g>
  <g id="axes_1">
   <g id="patch_2">
    <path d="M 108 512.64 
L 777.6 512.64 
L 777.6 69.12 
L 108 69.12 
z
" style="fill: #ffffff"/>
   </g>
   <g id="matplotlib.axis_1">
    <g id="xtick_1">
     <g id="line2d_1">
      <path d="M 117.445768 512.64 
L 117.445768 69.12 
" clip-path="url(#p55973f6037)" style="fill: none; stroke: #b0b0b0; stroke-width: 0.8; stroke-linecap: square"/>
     </g>
     <g id="line2d_2">
      <defs>
       <path id="m3010ffafbb" d="M 0 0 
L 0 3.5 
" style="stroke: #000000; stroke-width: 0.8"/>
      </defs>
      <g>
       <use xlink:href="#m3010ffafbb" x="117.445768" y="512.64" style="stroke: #000000; stroke-width: 0.8"/>
      </g>
     </g>
     <g id="text_1">
      <!-- 0 -->
      <g transform="translate(113.833581 528.821875) scale(0.12 -0.12)">
       <defs>
        <path id="DejaVuSansMono-30" d="M 1509 2344 
Q 1509 2516 1629 2641 
Q 1750 2766 1919 2766 
Q 2094 2766 2219 2641 
Q 2344 2516 2344 2344 
Q 2344 2169 2220 2047 
Q 2097 1925 1919 1925 
Q 1744 1925 1626 2044 
Q 1509 2163 1509 2344 
z
M 1925 4250 
Q 1484 4250 1267 3775 
Q 1050 3300 1050 2328 
Q 1050 1359 1267 884 
Q 1484 409 1925 409 
Q 2369 409 2586 884 
Q 2803 1359 2803 2328 
Q 2803 3300 2586 3775 
Q 2369 4250 1925 4250 
z
M 1925 4750 
Q 2672 4750 3055 4137 
Q 3438 3525 3438 2328 
Q 3438 1134 3055 521 
Q 2672 -91 1925 -91 
Q 1178 -91 797 521 
Q 416 1134 416 2328 
Q 416 3525 797 4137 
Q 1178 4750 1925 4750 
z
" transform="scale(0.015625)"/>
       </defs>
       <use xlink:href="#DejaVuSansMono-30"/>
      </g>
     </g>
    </g>
    <g id="xtick_2">
     <g id="line2d_3">
      <path d="M 222.398746 512.64 
L 222.398746 69.12 
" clip-path="url(#p55973f6037)" style="fill: none; stroke: #b0b0b0; stroke-width: 0.8; stroke-linecap: square"/>
     </g>
     <g id="line2d_4">
      <g>
       <use xlink:href="#m3010ffafbb" x="222.398746" y="512.64" style="stroke: #000000; stroke-width: 0.8"/>
      </g>
     </g>
     <g id="text_2">
      <!-- 5 -->
      <g transform="translate(218.786559 528.821875) scale(0.12 -0.12)">
       <defs>
        <path id="DejaVuSansMono-35" d="M 647 4666 
L 3009 4666 
L 3009 4134 
L 1222 4134 
L 1222 2988 
Q 1356 3038 1492 3061 
Q 1628 3084 1766 3084 
Q 2491 3084 2916 2656 
Q 3341 2228 3341 1497 
Q 3341 759 2895 334 
Q 2450 -91 1678 -91 
Q 1306 -91 998 -41 
Q 691 9 447 109 
L 447 750 
Q 734 594 1025 517 
Q 1316 441 1619 441 
Q 2141 441 2423 716 
Q 2706 991 2706 1497 
Q 2706 1997 2414 2275 
Q 2122 2553 1600 2553 
Q 1347 2553 1106 2495 
Q 866 2438 647 2322 
L 647 4666 
z
" transform="scale(0.015625)"/>
       </defs>
       <use xlink:href="#DejaVuSansMono-35"/>
      </g>
     </g>
    </g>
    <g id="xtick_3">
     <g id="line2d_5">
      <path d="M 327.351724 512.64 
L 327.351724 69.12 
" clip-path="url(#p55973f6037)" style="fill: none; stroke: #b0b0b0; stroke-width: 0.8; stroke-linecap: square"/>
     </g>
     <g id="line2d_6">
      <g>
       <use xlink:href="#m3010ffafbb" x="327.351724" y="512.64" style="stroke: #000000; stroke-width: 0.8"/>
      </g>
     </g>
     <g id="text_3">
      <!-- 10 -->
      <g transform="translate(320.127349 528.821875) scale(0.12 -0.12)">
       <defs>
        <path id="DejaVuSansMono-31" d="M 844 531 
L 1825 531 
L 1825 4097 
L 769 3859 
L 769 4434 
L 1819 4666 
L 2450 4666 
L 2450 531 
L 3419 531 
L 3419 0 
L 844 0 
L 844 531 
z
" transform="scale(0.015625)"/>
       </defs>
       <use xlink:href="#DejaVuSansMono-31"/>
       <use xlink:href="#DejaVuSansMono-30" x="60.205078"/>
      </g>
     </g>
    </g>
    <g id="xtick_4">
     <g id="line2d_7">
      <path d="M 432.304702 512.64 
L 432.304702 69.12 
" clip-path="url(#p55973f6037)" style="fill: none; stroke: #b0b0b0; stroke-width: 0.8; stroke-linecap: square"/>
     </g>
     <g id="line2d_8">
      <g>
       <use xlink:href="#m3010ffafbb" x="432.304702" y="512.64" style="stroke: #000000; stroke-width: 0.8"/>
      </g>
     </g>
     <g id="text_4">
      <!-- 15 -->
      <g transform="translate(425.080327 528.821875) scale(0.12 -0.12)">
       <use xlink:href="#DejaVuSansMono-31"/>
       <use xlink:href="#DejaVuSansMono-35" x="60.205078"/>
      </g>
     </g>
    </g>
    <g id="xtick_5">
     <g id="line2d_9">
      <path d="M 537.25768 512.64 
L 537.25768 69.12 
" clip-path="url(#p55973f6037)" style="fill: none; stroke: #b0b0b0; stroke-width: 0.8; stroke-linecap: square"/>
     </g>
     <g id="line2d_10">
      <g>
       <use xlink:href="#m3010ffafbb" x="537.25768" y="512.64" style="stroke: #000000; stroke-width: 0.8"/>
      </g>
     </g>
     <g id="text_5">
      <!-- 20 -->
      <g transform="translate(530.033305 528.821875) scale(0.12 -0.12)">
       <defs>
        <path id="DejaVuSansMono-32" d="M 1166 531 
L 3309 531 
L 3309 0 
L 475 0 
L 475 531 
Q 1059 1147 1496 1619 
Q 1934 2091 2100 2284 
Q 2413 2666 2522 2902 
Q 2631 3138 2631 3384 
Q 2631 3775 2401 3997 
Q 2172 4219 1772 4219 
Q 1488 4219 1175 4116 
Q 863 4013 513 3803 
L 513 4441 
Q 834 4594 1145 4672 
Q 1456 4750 1759 4750 
Q 2444 4750 2861 4386 
Q 3278 4022 3278 3431 
Q 3278 3131 3139 2831 
Q 3000 2531 2688 2169 
Q 2513 1966 2180 1606 
Q 1847 1247 1166 531 
z
" transform="scale(0.015625)"/>
       </defs>
       <use xlink:href="#DejaVuSansMono-32"/>
       <use xlink:href="#DejaVuSansMono-30" x="60.205078"/>
      </g>
     </g>
    </g>
    <g id="xtick_6">
     <g id="line2d_11">
      <path d="M 642.210658 512.64 
L 642.210658 69.12 
" clip-path="url(#p55973f6037)" style="fill: none; stroke: #b0b0b0; stroke-width: 0.8; stroke-linecap: square"/>
     </g>
     <g id="line2d_12">
      <g>
       <use xlink:href="#m3010ffafbb" x="642.210658" y="512.64" style="stroke: #000000; stroke-width: 0.8"/>
      </g>
     </g>
     <g id="text_6">
      <!-- 25 -->
      <g transform="translate(634.986283 528.821875) scale(0.12 -0.12)">
       <use xlink:href="#DejaVuSansMono-32"/>
       <use xlink:href="#DejaVuSansMono-35" x="60.205078"/>
      </g>
     </g>
    </g>
    <g id="xtick_7">
     <g id="line2d_13">
      <path d="M 747.163636 512.64 
L 747.163636 69.12 
" clip-path="url(#p55973f6037)" style="fill: none; stroke: #b0b0b0; stroke-width: 0.8; stroke-linecap: square"/>
     </g>
     <g id="line2d_14">
      <g>
       <use xlink:href="#m3010ffafbb" x="747.163636" y="512.64" style="stroke: #000000; stroke-width: 0.8"/>
      </g>
     </g>
     <g id="text_7">
      <!-- 30 -->
      <g transform="translate(739.939261 528.821875) scale(0.12 -0.12)">
       <defs>
        <path id="DejaVuSansMono-33" d="M 2425 2497 
Q 2884 2375 3128 2064 
Q 3372 1753 3372 1288 
Q 3372 644 2939 276 
Q 2506 -91 1741 -91 
Q 1419 -91 1084 -31 
Q 750 28 428 141 
L 428 769 
Q 747 603 1056 522 
Q 1366 441 1672 441 
Q 2191 441 2469 675 
Q 2747 909 2747 1350 
Q 2747 1756 2469 1995 
Q 2191 2234 1716 2234 
L 1234 2234 
L 1234 2753 
L 1716 2753 
Q 2150 2753 2394 2943 
Q 2638 3134 2638 3475 
Q 2638 3834 2411 4026 
Q 2184 4219 1766 4219 
Q 1488 4219 1191 4156 
Q 894 4094 569 3969 
L 569 4550 
Q 947 4650 1242 4700 
Q 1538 4750 1766 4750 
Q 2447 4750 2855 4408 
Q 3263 4066 3263 3500 
Q 3263 3116 3048 2859 
Q 2834 2603 2425 2497 
z
" transform="scale(0.015625)"/>
       </defs>
       <use xlink:href="#DejaVuSansMono-33"/>
       <use xlink:href="#DejaVuSansMono-30" x="60.205078"/>
      </g>
     </g>
    </g>
    <g id="text_8">
     <!-- Epoch -->
     <g transform="translate(421.728906 545.955312) scale(0.14 -0.14)">
      <defs>
       <path id="DejaVuSansMono-Bold-45" d="M 3431 0 
L 525 0 
L 525 4666 
L 3431 4666 
L 3431 3853 
L 1447 3853 
L 1447 2847 
L 3244 2847 
L 3244 2034 
L 1447 2034 
L 1447 813 
L 3431 813 
L 3431 0 
z
" transform="scale(0.015625)"/>
       <path id="DejaVuSansMono-Bold-70" d="M 1381 494 
L 1381 -1331 
L 469 -1331 
L 469 3500 
L 1381 3500 
L 1381 2975 
Q 1525 3278 1759 3431 
Q 1994 3584 2309 3584 
Q 2909 3584 3240 3103 
Q 3572 2622 3572 1747 
Q 3572 859 3236 384 
Q 2900 -91 2278 -91 
Q 1997 -91 1773 54 
Q 1550 200 1381 494 
z
M 2656 1753 
Q 2656 2259 2487 2546 
Q 2319 2834 2022 2834 
Q 1725 2834 1553 2546 
Q 1381 2259 1381 1753 
Q 1381 1247 1553 959 
Q 1725 672 2022 672 
Q 2319 672 2487 959 
Q 2656 1247 2656 1753 
z
" transform="scale(0.015625)"/>
       <path id="DejaVuSansMono-Bold-6f" d="M 1925 2841 
Q 1597 2841 1409 2552 
Q 1222 2263 1222 1747 
Q 1222 1231 1409 942 
Q 1597 653 1925 653 
Q 2256 653 2443 942 
Q 2631 1231 2631 1747 
Q 2631 2263 2443 2552 
Q 2256 2841 1925 2841 
z
M 306 1747 
Q 306 2594 745 3089 
Q 1184 3584 1925 3584 
Q 2669 3584 3108 3089 
Q 3547 2594 3547 1747 
Q 3547 900 3108 404 
Q 2669 -91 1925 -91 
Q 1184 -91 745 404 
Q 306 900 306 1747 
z
" transform="scale(0.015625)"/>
       <path id="DejaVuSansMono-Bold-63" d="M 3316 178 
Q 3084 44 2818 -23 
Q 2553 -91 2247 -91 
Q 1438 -91 981 396 
Q 525 884 525 1747 
Q 525 2613 984 3102 
Q 1444 3591 2253 3591 
Q 2534 3591 2795 3525 
Q 3056 3459 3316 3322 
L 3316 2484 
Q 3116 2656 2877 2748 
Q 2638 2841 2381 2841 
Q 1934 2841 1693 2556 
Q 1453 2272 1453 1747 
Q 1453 1222 1693 940 
Q 1934 659 2381 659 
Q 2647 659 2878 748 
Q 3109 838 3316 1019 
L 3316 178 
z
" transform="scale(0.015625)"/>
       <path id="DejaVuSansMono-Bold-68" d="M 3347 2272 
L 3347 0 
L 2438 0 
L 2438 2131 
Q 2438 2509 2330 2671 
Q 2222 2834 1978 2834 
Q 1728 2834 1587 2614 
Q 1447 2394 1447 2003 
L 1447 0 
L 538 0 
L 538 4863 
L 1447 4863 
L 1447 2975 
Q 1544 3266 1778 3425 
Q 2013 3584 2344 3584 
Q 2841 3584 3094 3254 
Q 3347 2925 3347 2272 
z
" transform="scale(0.015625)"/>
      </defs>
      <use xlink:href="#DejaVuSansMono-Bold-45"/>
      <use xlink:href="#DejaVuSansMono-Bold-70" x="60.205078"/>
      <use xlink:href="#DejaVuSansMono-Bold-6f" x="120.410156"/>
      <use xlink:href="#DejaVuSansMono-Bold-63" x="180.615234"/>
      <use xlink:href="#DejaVuSansMono-Bold-68" x="240.820312"/>
     </g>
    </g>
   </g>
   <g id="matplotlib.axis_2">
    <g id="ytick_1">
     <g id="line2d_15">
      <path d="M 108 465.141082 
L 777.6 465.141082 
" clip-path="url(#p55973f6037)" style="fill: none; stroke: #b0b0b0; stroke-width: 0.8; stroke-linecap: square"/>
     </g>
     <g id="line2d_16">
      <defs>
       <path id="md5a3fb5408" d="M 0 0 
L -3.5 0 
" style="stroke: #000000; stroke-width: 0.8"/>
      </defs>
      <g>
       <use xlink:href="#md5a3fb5408" x="108" y="465.141082" style="stroke: #000000; stroke-width: 0.8"/>
      </g>
     </g>
     <g id="text_9">
      <!-- 2 -->
      <g transform="translate(93.775625 469.73202) scale(0.12 -0.12)">
       <use xlink:href="#DejaVuSansMono-32"/>
      </g>
     </g>
    </g>
    <g id="ytick_2">
     <g id="line2d_17">
      <path d="M 108 392.207152 
L 777.6 392.207152 
" clip-path="url(#p55973f6037)" style="fill: none; stroke: #b0b0b0; stroke-width: 0.8; stroke-linecap: square"/>
     </g>
     <g id="line2d_18">
      <g>
       <use xlink:href="#md5a3fb5408" x="108" y="392.207152" style="stroke: #000000; stroke-width: 0.8"/>
      </g>
     </g>
     <g id="text_10">
      <!-- 4 -->
      <g transform="translate(93.775625 396.79809) scale(0.12 -0.12)">
       <defs>
        <path id="DejaVuSansMono-34" d="M 2297 4091 
L 825 1625 
L 2297 1625 
L 2297 4091 
z
M 2194 4666 
L 2925 4666 
L 2925 1625 
L 3547 1625 
L 3547 1113 
L 2925 1113 
L 2925 0 
L 2297 0 
L 2297 1113 
L 319 1113 
L 319 1709 
L 2194 4666 
z
" transform="scale(0.015625)"/>
       </defs>
       <use xlink:href="#DejaVuSansMono-34"/>
      </g>
     </g>
    </g>
    <g id="ytick_3">
     <g id="line2d_19">
      <path d="M 108 319.273222 
L 777.6 319.273222 
" clip-path="url(#p55973f6037)" style="fill: none; stroke: #b0b0b0; stroke-width: 0.8; stroke-linecap: square"/>
     </g>
     <g id="line2d_20">
      <g>
       <use xlink:href="#md5a3fb5408" x="108" y="319.273222" style="stroke: #000000; stroke-width: 0.8"/>
      </g>
     </g>
     <g id="text_11">
      <!-- 6 -->
      <g transform="translate(93.775625 323.86416) scale(0.12 -0.12)">
       <defs>
        <path id="DejaVuSansMono-36" d="M 3097 4563 
L 3097 3981 
Q 2900 4097 2678 4158 
Q 2456 4219 2216 4219 
Q 1616 4219 1306 3767 
Q 997 3316 997 2438 
Q 1147 2750 1412 2917 
Q 1678 3084 2022 3084 
Q 2697 3084 3067 2670 
Q 3438 2256 3438 1497 
Q 3438 741 3056 325 
Q 2675 -91 1984 -91 
Q 1172 -91 794 492 
Q 416 1075 416 2328 
Q 416 3509 870 4129 
Q 1325 4750 2188 4750 
Q 2419 4750 2650 4701 
Q 2881 4653 3097 4563 
z
M 1972 2591 
Q 1569 2591 1337 2300 
Q 1106 2009 1106 1497 
Q 1106 984 1337 693 
Q 1569 403 1972 403 
Q 2391 403 2603 679 
Q 2816 956 2816 1497 
Q 2816 2041 2603 2316 
Q 2391 2591 1972 2591 
z
" transform="scale(0.015625)"/>
       </defs>
       <use xlink:href="#DejaVuSansMono-36"/>
      </g>
     </g>
    </g>
    <g id="ytick_4">
     <g id="line2d_21">
      <path d="M 108 246.339292 
L 777.6 246.339292 
" clip-path="url(#p55973f6037)" style="fill: none; stroke: #b0b0b0; stroke-width: 0.8; stroke-linecap: square"/>
     </g>
     <g id="line2d_22">
      <g>
       <use xlink:href="#md5a3fb5408" x="108" y="246.339292" style="stroke: #000000; stroke-width: 0.8"/>
      </g>
     </g>
     <g id="text_12">
      <!-- 8 -->
      <g transform="translate(93.775625 250.93023) scale(0.12 -0.12)">
       <defs>
        <path id="DejaVuSansMono-38" d="M 1925 2216 
Q 1503 2216 1273 1980 
Q 1044 1744 1044 1313 
Q 1044 881 1276 642 
Q 1509 403 1925 403 
Q 2350 403 2579 639 
Q 2809 875 2809 1313 
Q 2809 1741 2576 1978 
Q 2344 2216 1925 2216 
z
M 1375 2478 
Q 972 2581 745 2862 
Q 519 3144 519 3541 
Q 519 4097 897 4423 
Q 1275 4750 1925 4750 
Q 2578 4750 2956 4423 
Q 3334 4097 3334 3541 
Q 3334 3144 3107 2862 
Q 2881 2581 2478 2478 
Q 2947 2375 3195 2062 
Q 3444 1750 3444 1253 
Q 3444 622 3041 265 
Q 2638 -91 1925 -91 
Q 1213 -91 811 264 
Q 409 619 409 1247 
Q 409 1747 657 2061 
Q 906 2375 1375 2478 
z
M 1147 3481 
Q 1147 3106 1347 2909 
Q 1547 2713 1925 2713 
Q 2306 2713 2506 2909 
Q 2706 3106 2706 3481 
Q 2706 3863 2507 4063 
Q 2309 4263 1925 4263 
Q 1547 4263 1347 4061 
Q 1147 3859 1147 3481 
z
" transform="scale(0.015625)"/>
       </defs>
       <use xlink:href="#DejaVuSansMono-38"/>
      </g>
     </g>
    </g>
    <g id="ytick_5">
     <g id="line2d_23">
      <path d="M 108 173.405362 
L 777.6 173.405362 
" clip-path="url(#p55973f6037)" style="fill: none; stroke: #b0b0b0; stroke-width: 0.8; stroke-linecap: square"/>
     </g>
     <g id="line2d_24">
      <g>
       <use xlink:href="#md5a3fb5408" x="108" y="173.405362" style="stroke: #000000; stroke-width: 0.8"/>
      </g>
     </g>
     <g id="text_13">
      <!-- 10 -->
      <g transform="translate(86.55125 177.9963) scale(0.12 -0.12)">
       <use xlink:href="#DejaVuSansMono-31"/>
       <use xlink:href="#DejaVuSansMono-30" x="60.205078"/>
      </g>
     </g>
    </g>
    <g id="ytick_6">
     <g id="line2d_25">
      <path d="M 108 100.471432 
L 777.6 100.471432 
" clip-path="url(#p55973f6037)" style="fill: none; stroke: #b0b0b0; stroke-width: 0.8; stroke-linecap: square"/>
     </g>
     <g id="line2d_26">
      <g>
       <use xlink:href="#md5a3fb5408" x="108" y="100.471432" style="stroke: #000000; stroke-width: 0.8"/>
      </g>
     </g>
     <g id="text_14">
      <!-- 12 -->
      <g transform="translate(86.55125 105.062369) scale(0.12 -0.12)">
       <use xlink:href="#DejaVuSansMono-31"/>
       <use xlink:href="#DejaVuSansMono-32" x="60.205078"/>
      </g>
     </g>
    </g>
    <g id="text_15">
     <!-- Loss -->
     <g transform="translate(79.639687 307.736875) rotate(-90) scale(0.14 -0.14)">
      <defs>
       <path id="DejaVuSansMono-Bold-4c" d="M 703 0 
L 703 4666 
L 1625 4666 
L 1625 813 
L 3597 813 
L 3597 0 
L 703 0 
z
" transform="scale(0.015625)"/>
       <path id="DejaVuSansMono-Bold-73" d="M 3097 3391 
L 3097 2591 
Q 2844 2753 2570 2836 
Q 2297 2919 2022 2919 
Q 1716 2919 1559 2830 
Q 1403 2741 1403 2566 
Q 1403 2316 2072 2159 
L 2106 2150 
L 2369 2088 
Q 2869 1969 3101 1705 
Q 3334 1441 3334 991 
Q 3334 450 2979 179 
Q 2625 -91 1913 -91 
Q 1597 -91 1265 -36 
Q 934 19 594 128 
L 594 928 
Q 897 756 1211 665 
Q 1525 575 1819 575 
Q 2141 575 2306 669 
Q 2472 763 2472 941 
Q 2472 1116 2355 1209 
Q 2238 1303 1797 1409 
L 1544 1466 
Q 1019 1584 778 1837 
Q 538 2091 538 2516 
Q 538 3022 903 3303 
Q 1269 3584 1931 3584 
Q 2228 3584 2523 3536 
Q 2819 3488 3097 3391 
z
" transform="scale(0.015625)"/>
      </defs>
      <use xlink:href="#DejaVuSansMono-Bold-4c"/>
      <use xlink:href="#DejaVuSansMono-Bold-6f" x="60.205078"/>
      <use xlink:href="#DejaVuSansMono-Bold-73" x="120.410156"/>
      <use xlink:href="#DejaVuSansMono-Bold-73" x="180.615234"/>
     </g>
    </g>
   </g>
   <g id="line2d_27">
    <path d="M 138.436364 336.108894 
L 159.426959 345.823344 
L 180.417555 362.536997 
L 201.40815 384.286991 
L 222.398746 405.170385 
L 243.389342 420.860281 
L 264.379937 431.880059 
L 285.370533 440.116448 
L 306.361129 446.626658 
L 327.351724 451.956758 
L 348.34232 456.524737 
L 369.332915 460.523657 
L 390.323511 464.200348 
L 411.314107 467.403549 
L 432.304702 470.403077 
L 453.295298 472.952207 
L 474.285893 475.180399 
L 495.276489 477.381613 
L 516.267085 479.332495 
L 537.25768 481.112116 
L 558.248276 482.54001 
L 579.238871 484.126053 
L 600.229467 485.389824 
L 621.220063 486.72668 
L 642.210658 487.88338 
L 663.201254 488.930662 
L 684.19185 489.843095 
L 705.182445 490.804529 
L 726.173041 491.616674 
L 747.163636 492.48 
" clip-path="url(#p55973f6037)" style="fill: none; stroke: #0000ff; stroke-width: 1.5; stroke-linecap: square"/>
   </g>
   <g id="line2d_28">
    <path d="M 138.436364 329.625266 
L 159.426959 322.444802 
L 180.417555 308.521965 
L 201.40815 289.537329 
L 222.398746 268.313753 
L 243.389342 248.798255 
L 264.379937 235.520265 
L 285.370533 219.576577 
L 306.361129 212.251286 
L 327.351724 198.510036 
L 348.34232 190.569883 
L 369.332915 180.217802 
L 390.323511 171.428108 
L 411.314107 163.939693 
L 432.304702 156.098643 
L 453.295298 147.719299 
L 474.285893 148.343027 
L 495.276489 138.82659 
L 516.267085 131.587767 
L 537.25768 132.101179 
L 558.248276 121.279858 
L 579.238871 114.422903 
L 600.229467 114.303698 
L 621.220063 110.708612 
L 642.210658 105.644687 
L 663.201254 97.987816 
L 684.19185 92.638582 
L 705.182445 96.785026 
L 726.173041 95.944204 
L 747.163636 89.28 
" clip-path="url(#p55973f6037)" style="fill: none; stroke: #ffa500; stroke-width: 1.5; stroke-linecap: square"/>
   </g>
   <g id="patch_3">
    <path d="M 108 512.64 
L 108 69.12 
" style="fill: none; stroke: #000000; stroke-width: 0.8; stroke-linejoin: miter; stroke-linecap: square"/>
   </g>
   <g id="patch_4">
    <path d="M 777.6 512.64 
L 777.6 69.12 
" style="fill: none; stroke: #000000; stroke-width: 0.8; stroke-linejoin: miter; stroke-linecap: square"/>
   </g>
   <g id="patch_5">
    <path d="M 108 512.64 
L 777.6 512.64 
" style="fill: none; stroke: #000000; stroke-width: 0.8; stroke-linejoin: miter; stroke-linecap: square"/>
   </g>
   <g id="patch_6">
    <path d="M 108 69.12 
L 777.6 69.12 
" style="fill: none; stroke: #000000; stroke-width: 0.8; stroke-linejoin: miter; stroke-linecap: square"/>
   </g>
   <g id="text_16">
    <g id="patch_7">
     <path d="M 117.432 301.205625 
L 566.038875 301.205625 
L 566.038875 131.688 
L 117.432 131.688 
z
" style="fill: #ffffff; opacity: 0.8; stroke: #000000; stroke-linejoin: miter"/>
    </g>
    <!-- Context Length: 30 -->
    <g transform="translate(121.392 144.766125) scale(0.12 -0.12)">
     <defs>
      <path id="DejaVuSansMono-43" d="M 3353 166 
Q 3113 38 2859 -26 
Q 2606 -91 2322 -91 
Q 1425 -91 929 543 
Q 434 1178 434 2328 
Q 434 3472 932 4111 
Q 1431 4750 2322 4750 
Q 2606 4750 2859 4686 
Q 3113 4622 3353 4494 
L 3353 3847 
Q 3122 4038 2856 4138 
Q 2591 4238 2322 4238 
Q 1706 4238 1400 3763 
Q 1094 3288 1094 2328 
Q 1094 1372 1400 897 
Q 1706 422 2322 422 
Q 2597 422 2861 522 
Q 3125 622 3353 813 
L 3353 166 
z
" transform="scale(0.015625)"/>
      <path id="DejaVuSansMono-6f" d="M 1925 3097 
Q 1488 3097 1263 2756 
Q 1038 2416 1038 1747 
Q 1038 1081 1263 739 
Q 1488 397 1925 397 
Q 2366 397 2591 739 
Q 2816 1081 2816 1747 
Q 2816 2416 2591 2756 
Q 2366 3097 1925 3097 
z
M 1925 3584 
Q 2653 3584 3039 3112 
Q 3425 2641 3425 1747 
Q 3425 850 3040 379 
Q 2656 -91 1925 -91 
Q 1197 -91 812 379 
Q 428 850 428 1747 
Q 428 2641 812 3112 
Q 1197 3584 1925 3584 
z
" transform="scale(0.015625)"/>
      <path id="DejaVuSansMono-6e" d="M 3284 2169 
L 3284 0 
L 2706 0 
L 2706 2169 
Q 2706 2641 2540 2862 
Q 2375 3084 2022 3084 
Q 1619 3084 1401 2798 
Q 1184 2513 1184 1978 
L 1184 0 
L 609 0 
L 609 3500 
L 1184 3500 
L 1184 2975 
Q 1338 3275 1600 3429 
Q 1863 3584 2222 3584 
Q 2756 3584 3020 3232 
Q 3284 2881 3284 2169 
z
" transform="scale(0.015625)"/>
      <path id="DejaVuSansMono-74" d="M 1919 4494 
L 1919 3500 
L 3225 3500 
L 3225 3053 
L 1919 3053 
L 1919 1153 
Q 1919 766 2066 612 
Q 2213 459 2578 459 
L 3225 459 
L 3225 0 
L 2522 0 
Q 1875 0 1609 259 
Q 1344 519 1344 1153 
L 1344 3053 
L 409 3053 
L 409 3500 
L 1344 3500 
L 1344 4494 
L 1919 4494 
z
" transform="scale(0.015625)"/>
      <path id="DejaVuSansMono-65" d="M 3475 1894 
L 3475 1613 
L 984 1613 
L 984 1594 
Q 984 1022 1282 709 
Q 1581 397 2125 397 
Q 2400 397 2700 484 
Q 3000 572 3341 750 
L 3341 178 
Q 3013 44 2708 -23 
Q 2403 -91 2119 -91 
Q 1303 -91 843 398 
Q 384 888 384 1747 
Q 384 2584 834 3084 
Q 1284 3584 2034 3584 
Q 2703 3584 3089 3131 
Q 3475 2678 3475 1894 
z
M 2900 2063 
Q 2888 2569 2661 2833 
Q 2434 3097 2009 3097 
Q 1594 3097 1325 2822 
Q 1056 2547 1006 2059 
L 2900 2063 
z
" transform="scale(0.015625)"/>
      <path id="DejaVuSansMono-78" d="M 3494 3500 
L 2241 1825 
L 3616 0 
L 2950 0 
L 1925 1403 
L 903 0 
L 238 0 
L 1613 1825 
L 359 3500 
L 997 3500 
L 1925 2234 
L 2847 3500 
L 3494 3500 
z
" transform="scale(0.015625)"/>
      <path id="DejaVuSansMono-20" transform="scale(0.015625)"/>
      <path id="DejaVuSansMono-4c" d="M 672 4666 
L 1306 4666 
L 1306 531 
L 3559 531 
L 3559 0 
L 672 0 
L 672 4666 
z
" transform="scale(0.015625)"/>
      <path id="DejaVuSansMono-67" d="M 2681 1778 
Q 2681 2425 2470 2761 
Q 2259 3097 1856 3097 
Q 1434 3097 1212 2761 
Q 991 2425 991 1778 
Q 991 1131 1214 792 
Q 1438 453 1863 453 
Q 2259 453 2470 793 
Q 2681 1134 2681 1778 
z
M 3256 225 
Q 3256 -563 2884 -969 
Q 2513 -1375 1791 -1375 
Q 1553 -1375 1293 -1331 
Q 1034 -1288 775 -1203 
L 775 -634 
Q 1081 -778 1331 -847 
Q 1581 -916 1791 -916 
Q 2256 -916 2468 -662 
Q 2681 -409 2681 141 
L 2681 166 
L 2681 556 
Q 2544 263 2306 119 
Q 2069 -25 1728 -25 
Q 1116 -25 750 465 
Q 384 956 384 1778 
Q 384 2603 750 3093 
Q 1116 3584 1728 3584 
Q 2066 3584 2300 3450 
Q 2534 3316 2681 3034 
L 2681 3488 
L 3256 3488 
L 3256 225 
z
" transform="scale(0.015625)"/>
      <path id="DejaVuSansMono-68" d="M 3284 2169 
L 3284 0 
L 2706 0 
L 2706 2169 
Q 2706 2641 2540 2862 
Q 2375 3084 2022 3084 
Q 1619 3084 1401 2798 
Q 1184 2513 1184 1978 
L 1184 0 
L 609 0 
L 609 4863 
L 1184 4863 
L 1184 2975 
Q 1338 3275 1600 3429 
Q 1863 3584 2222 3584 
Q 2756 3584 3020 3232 
Q 3284 2881 3284 2169 
z
" transform="scale(0.015625)"/>
      <path id="DejaVuSansMono-3a" d="M 1528 3322 
L 2316 3322 
L 2316 2375 
L 1528 2375 
L 1528 3322 
z
M 1528 953 
L 2316 953 
L 2316 0 
L 1528 0 
L 1528 953 
z
" transform="scale(0.015625)"/>
     </defs>
     <use xlink:href="#DejaVuSansMono-43"/>
     <use xlink:href="#DejaVuSansMono-6f" x="60.205078"/>
     <use xlink:href="#DejaVuSansMono-6e" x="120.410156"/>
     <use xlink:href="#DejaVuSansMono-74" x="180.615234"/>
     <use xlink:href="#DejaVuSansMono-65" x="240.820312"/>
     <use xlink:href="#DejaVuSansMono-78" x="301.025391"/>
     <use xlink:href="#DejaVuSansMono-74" x="361.230469"/>
     <use xlink:href="#DejaVuSansMono-20" x="421.435547"/>
     <use xlink:href="#DejaVuSansMono-4c" x="481.640625"/>
     <use xlink:href="#DejaVuSansMono-65" x="541.845703"/>
     <use xlink:href="#DejaVuSansMono-6e" x="602.050781"/>
     <use xlink:href="#DejaVuSansMono-67" x="662.255859"/>
     <use xlink:href="#DejaVuSansMono-74" x="722.460938"/>
     <use xlink:href="#DejaVuSansMono-68" x="782.666016"/>
     <use xlink:href="#DejaVuSansMono-3a" x="842.871094"/>
     <use xlink:href="#DejaVuSansMono-20" x="903.076172"/>
     <use xlink:href="#DejaVuSansMono-33" x="963.28125"/>
     <use xlink:href="#DejaVuSansMono-30" x="1023.486328"/>
    </g>
    <!-- Batch Size: 128 -->
    <g transform="translate(121.392 158.3625) scale(0.12 -0.12)">
     <defs>
      <path id="DejaVuSansMono-42" d="M 1153 2228 
L 1153 519 
L 1900 519 
Q 2450 519 2684 711 
Q 2919 903 2919 1344 
Q 2919 1800 2672 2014 
Q 2425 2228 1900 2228 
L 1153 2228 
z
M 1153 4147 
L 1153 2741 
L 1888 2741 
Q 2344 2741 2548 2916 
Q 2753 3091 2753 3481 
Q 2753 3834 2551 3990 
Q 2350 4147 1888 4147 
L 1153 4147 
z
M 519 4666 
L 1900 4666 
Q 2616 4666 3003 4356 
Q 3391 4047 3391 3481 
Q 3391 3053 3186 2806 
Q 2981 2559 2572 2497 
Q 3031 2428 3292 2104 
Q 3553 1781 3553 1281 
Q 3553 647 3137 323 
Q 2722 0 1900 0 
L 519 0 
L 519 4666 
z
" transform="scale(0.015625)"/>
      <path id="DejaVuSansMono-61" d="M 2194 1759 
L 2003 1759 
Q 1500 1759 1245 1582 
Q 991 1406 991 1056 
Q 991 741 1181 566 
Q 1372 391 1709 391 
Q 2184 391 2456 720 
Q 2728 1050 2731 1631 
L 2731 1759 
L 2194 1759 
z
M 3309 1997 
L 3309 0 
L 2731 0 
L 2731 519 
Q 2547 206 2267 57 
Q 1988 -91 1588 -91 
Q 1053 -91 734 211 
Q 416 513 416 1019 
Q 416 1603 808 1906 
Q 1200 2209 1959 2209 
L 2731 2209 
L 2731 2300 
Q 2728 2719 2518 2908 
Q 2309 3097 1850 3097 
Q 1556 3097 1256 3012 
Q 956 2928 672 2766 
L 672 3341 
Q 991 3463 1283 3523 
Q 1575 3584 1850 3584 
Q 2284 3584 2592 3456 
Q 2900 3328 3091 3072 
Q 3209 2916 3259 2686 
Q 3309 2456 3309 1997 
z
" transform="scale(0.015625)"/>
      <path id="DejaVuSansMono-63" d="M 3316 178 
Q 3084 44 2839 -23 
Q 2594 -91 2338 -91 
Q 1525 -91 1067 396 
Q 609 884 609 1747 
Q 609 2609 1067 3096 
Q 1525 3584 2338 3584 
Q 2591 3584 2831 3518 
Q 3072 3453 3316 3316 
L 3316 2713 
Q 3088 2916 2858 3006 
Q 2628 3097 2338 3097 
Q 1797 3097 1506 2747 
Q 1216 2397 1216 1747 
Q 1216 1100 1508 748 
Q 1800 397 2338 397 
Q 2638 397 2875 489 
Q 3113 581 3316 775 
L 3316 178 
z
" transform="scale(0.015625)"/>
      <path id="DejaVuSansMono-53" d="M 3163 4506 
L 3163 3866 
Q 2875 4050 2586 4144 
Q 2297 4238 2003 4238 
Q 1556 4238 1297 4030 
Q 1038 3822 1038 3469 
Q 1038 3159 1208 2996 
Q 1378 2834 1844 2725 
L 2175 2650 
Q 2831 2497 3131 2169 
Q 3431 1841 3431 1275 
Q 3431 609 3018 259 
Q 2606 -91 1819 -91 
Q 1491 -91 1159 -20 
Q 828 50 494 191 
L 494 863 
Q 853 634 1173 528 
Q 1494 422 1819 422 
Q 2297 422 2562 636 
Q 2828 850 2828 1234 
Q 2828 1584 2645 1768 
Q 2463 1953 2009 2053 
L 1672 2131 
Q 1022 2278 728 2575 
Q 434 2872 434 3372 
Q 434 3997 854 4373 
Q 1275 4750 1972 4750 
Q 2241 4750 2537 4689 
Q 2834 4628 3163 4506 
z
" transform="scale(0.015625)"/>
      <path id="DejaVuSansMono-69" d="M 800 3500 
L 2272 3500 
L 2272 447 
L 3413 447 
L 3413 0 
L 556 0 
L 556 447 
L 1697 447 
L 1697 3053 
L 800 3053 
L 800 3500 
z
M 1697 4863 
L 2272 4863 
L 2272 4134 
L 1697 4134 
L 1697 4863 
z
" transform="scale(0.015625)"/>
      <path id="DejaVuSansMono-7a" d="M 709 3506 
L 3250 3506 
L 3250 2981 
L 1241 469 
L 3250 469 
L 3250 0 
L 634 0 
L 634 531 
L 2644 3047 
L 709 3047 
L 709 3506 
z
" transform="scale(0.015625)"/>
     </defs>
     <use xlink:href="#DejaVuSansMono-42"/>
     <use xlink:href="#DejaVuSansMono-61" x="60.205078"/>
     <use xlink:href="#DejaVuSansMono-74" x="120.410156"/>
     <use xlink:href="#DejaVuSansMono-63" x="180.615234"/>
     <use xlink:href="#DejaVuSansMono-68" x="240.820312"/>
     <use xlink:href="#DejaVuSansMono-20" x="301.025391"/>
     <use xlink:href="#DejaVuSansMono-53" x="361.230469"/>
     <use xlink:href="#DejaVuSansMono-69" x="421.435547"/>
     <use xlink:href="#DejaVuSansMono-7a" x="481.640625"/>
     <use xlink:href="#DejaVuSansMono-65" x="541.845703"/>
     <use xlink:href="#DejaVuSansMono-3a" x="602.050781"/>
     <use xlink:href="#DejaVuSansMono-20" x="662.255859"/>
     <use xlink:href="#DejaVuSansMono-31" x="722.460938"/>
     <use xlink:href="#DejaVuSansMono-32" x="782.666016"/>
     <use xlink:href="#DejaVuSansMono-38" x="842.871094"/>
    </g>
    <!-- Model Type: reward_conditioned -->
    <g transform="translate(121.392 171.876375) scale(0.12 -0.12)">
     <defs>
      <path id="DejaVuSansMono-4d" d="M 269 4666 
L 1113 4666 
L 1919 2291 
L 2731 4666 
L 3578 4666 
L 3578 0 
L 2994 0 
L 2994 4122 
L 2163 1663 
L 1684 1663 
L 850 4122 
L 850 0 
L 269 0 
L 269 4666 
z
" transform="scale(0.015625)"/>
      <path id="DejaVuSansMono-64" d="M 2681 3053 
L 2681 4863 
L 3256 4863 
L 3256 0 
L 2681 0 
L 2681 441 
Q 2538 181 2298 45 
Q 2059 -91 1747 -91 
Q 1113 -91 748 401 
Q 384 894 384 1759 
Q 384 2613 750 3098 
Q 1116 3584 1747 3584 
Q 2063 3584 2303 3448 
Q 2544 3313 2681 3053 
z
M 991 1747 
Q 991 1078 1203 737 
Q 1416 397 1831 397 
Q 2247 397 2464 740 
Q 2681 1084 2681 1747 
Q 2681 2413 2464 2755 
Q 2247 3097 1831 3097 
Q 1416 3097 1203 2756 
Q 991 2416 991 1747 
z
" transform="scale(0.015625)"/>
      <path id="DejaVuSansMono-6c" d="M 1997 1269 
Q 1997 881 2139 684 
Q 2281 488 2559 488 
L 3231 488 
L 3231 0 
L 2503 0 
Q 1988 0 1705 331 
Q 1422 663 1422 1269 
L 1422 4447 
L 500 4447 
L 500 4897 
L 1997 4897 
L 1997 1269 
z
" transform="scale(0.015625)"/>
      <path id="DejaVuSansMono-54" d="M 147 4666 
L 3706 4666 
L 3706 4134 
L 2247 4134 
L 2247 0 
L 1613 0 
L 1613 4134 
L 147 4134 
L 147 4666 
z
" transform="scale(0.015625)"/>
      <path id="DejaVuSansMono-79" d="M 2681 1125 
Q 2538 759 2316 163 
Q 2006 -663 1900 -844 
Q 1756 -1088 1540 -1209 
Q 1325 -1331 1038 -1331 
L 575 -1331 
L 575 -850 
L 916 -850 
Q 1169 -850 1312 -703 
Q 1456 -556 1678 56 
L 325 3500 
L 934 3500 
L 1972 763 
L 2994 3500 
L 3603 3500 
L 2681 1125 
z
" transform="scale(0.015625)"/>
      <path id="DejaVuSansMono-70" d="M 1172 441 
L 1172 -1331 
L 594 -1331 
L 594 3500 
L 1172 3500 
L 1172 3053 
Q 1316 3313 1555 3448 
Q 1794 3584 2106 3584 
Q 2741 3584 3102 3093 
Q 3463 2603 3463 1734 
Q 3463 881 3100 395 
Q 2738 -91 2106 -91 
Q 1788 -91 1548 45 
Q 1309 181 1172 441 
z
M 2859 1747 
Q 2859 2416 2648 2756 
Q 2438 3097 2022 3097 
Q 1603 3097 1387 2755 
Q 1172 2413 1172 1747 
Q 1172 1084 1387 740 
Q 1603 397 2022 397 
Q 2438 397 2648 737 
Q 2859 1078 2859 1747 
z
" transform="scale(0.015625)"/>
      <path id="DejaVuSansMono-72" d="M 3609 2778 
Q 3425 2922 3234 2987 
Q 3044 3053 2816 3053 
Q 2278 3053 1993 2715 
Q 1709 2378 1709 1741 
L 1709 0 
L 1131 0 
L 1131 3500 
L 1709 3500 
L 1709 2816 
Q 1853 3188 2151 3386 
Q 2450 3584 2859 3584 
Q 3072 3584 3256 3531 
Q 3441 3478 3609 3366 
L 3609 2778 
z
" transform="scale(0.015625)"/>
      <path id="DejaVuSansMono-77" d="M 0 3500 
L 569 3500 
L 1178 672 
L 1678 2478 
L 2169 2478 
L 2675 672 
L 3284 3500 
L 3853 3500 
L 3034 0 
L 2484 0 
L 1925 1919 
L 1369 0 
L 819 0 
L 0 3500 
z
" transform="scale(0.015625)"/>
      <path id="DejaVuSansMono-5f" d="M 3853 -1259 
L 3853 -1509 
L 0 -1509 
L 0 -1259 
L 3853 -1259 
z
" transform="scale(0.015625)"/>
     </defs>
     <use xlink:href="#DejaVuSansMono-4d"/>
     <use xlink:href="#DejaVuSansMono-6f" x="60.205078"/>
     <use xlink:href="#DejaVuSansMono-64" x="120.410156"/>
     <use xlink:href="#DejaVuSansMono-65" x="180.615234"/>
     <use xlink:href="#DejaVuSansMono-6c" x="240.820312"/>
     <use xlink:href="#DejaVuSansMono-20" x="301.025391"/>
     <use xlink:href="#DejaVuSansMono-54" x="361.230469"/>
     <use xlink:href="#DejaVuSansMono-79" x="421.435547"/>
     <use xlink:href="#DejaVuSansMono-70" x="481.640625"/>
     <use xlink:href="#DejaVuSansMono-65" x="541.845703"/>
     <use xlink:href="#DejaVuSansMono-3a" x="602.050781"/>
     <use xlink:href="#DejaVuSansMono-20" x="662.255859"/>
     <use xlink:href="#DejaVuSansMono-72" x="722.460938"/>
     <use xlink:href="#DejaVuSansMono-65" x="782.666016"/>
     <use xlink:href="#DejaVuSansMono-77" x="842.871094"/>
     <use xlink:href="#DejaVuSansMono-61" x="903.076172"/>
     <use xlink:href="#DejaVuSansMono-72" x="963.28125"/>
     <use xlink:href="#DejaVuSansMono-64" x="1023.486328"/>
     <use xlink:href="#DejaVuSansMono-5f" x="1083.691406"/>
     <use xlink:href="#DejaVuSansMono-63" x="1143.896484"/>
     <use xlink:href="#DejaVuSansMono-6f" x="1204.101562"/>
     <use xlink:href="#DejaVuSansMono-6e" x="1264.306641"/>
     <use xlink:href="#DejaVuSansMono-64" x="1324.511719"/>
     <use xlink:href="#DejaVuSansMono-69" x="1384.716797"/>
     <use xlink:href="#DejaVuSansMono-74" x="1444.921875"/>
     <use xlink:href="#DejaVuSansMono-69" x="1505.126953"/>
     <use xlink:href="#DejaVuSansMono-6f" x="1565.332031"/>
     <use xlink:href="#DejaVuSansMono-6e" x="1625.537109"/>
     <use xlink:href="#DejaVuSansMono-65" x="1685.742188"/>
     <use xlink:href="#DejaVuSansMono-64" x="1745.947266"/>
    </g>
    <!-- Layers: 6 -->
    <g transform="translate(121.392 185.724) scale(0.12 -0.12)">
     <defs>
      <path id="DejaVuSansMono-73" d="M 3041 3378 
L 3041 2816 
Q 2794 2959 2544 3031 
Q 2294 3103 2034 3103 
Q 1644 3103 1451 2976 
Q 1259 2850 1259 2591 
Q 1259 2356 1403 2240 
Q 1547 2125 2119 2016 
L 2350 1972 
Q 2778 1891 2998 1647 
Q 3219 1403 3219 1013 
Q 3219 494 2850 201 
Q 2481 -91 1825 -91 
Q 1566 -91 1281 -36 
Q 997 19 666 128 
L 666 722 
Q 988 556 1281 473 
Q 1575 391 1838 391 
Q 2219 391 2428 545 
Q 2638 700 2638 978 
Q 2638 1378 1872 1531 
L 1847 1538 
L 1631 1581 
Q 1134 1678 906 1908 
Q 678 2138 678 2534 
Q 678 3038 1018 3311 
Q 1359 3584 1991 3584 
Q 2272 3584 2531 3532 
Q 2791 3481 3041 3378 
z
" transform="scale(0.015625)"/>
     </defs>
     <use xlink:href="#DejaVuSansMono-4c"/>
     <use xlink:href="#DejaVuSansMono-61" x="60.205078"/>
     <use xlink:href="#DejaVuSansMono-79" x="120.410156"/>
     <use xlink:href="#DejaVuSansMono-65" x="180.615234"/>
     <use xlink:href="#DejaVuSansMono-72" x="240.820312"/>
     <use xlink:href="#DejaVuSansMono-73" x="301.025391"/>
     <use xlink:href="#DejaVuSansMono-3a" x="361.230469"/>
     <use xlink:href="#DejaVuSansMono-20" x="421.435547"/>
     <use xlink:href="#DejaVuSansMono-36" x="481.640625"/>
    </g>
    <!-- Heads: 8 -->
    <g transform="translate(121.392 199.237875) scale(0.12 -0.12)">
     <defs>
      <path id="DejaVuSansMono-48" d="M 428 4666 
L 1063 4666 
L 1063 2753 
L 2791 2753 
L 2791 4666 
L 3425 4666 
L 3425 0 
L 2791 0 
L 2791 2222 
L 1063 2222 
L 1063 0 
L 428 0 
L 428 4666 
z
" transform="scale(0.015625)"/>
     </defs>
     <use xlink:href="#DejaVuSansMono-48"/>
     <use xlink:href="#DejaVuSansMono-65" x="60.205078"/>
     <use xlink:href="#DejaVuSansMono-61" x="120.410156"/>
     <use xlink:href="#DejaVuSansMono-64" x="180.615234"/>
     <use xlink:href="#DejaVuSansMono-73" x="240.820312"/>
     <use xlink:href="#DejaVuSansMono-3a" x="301.025391"/>
     <use xlink:href="#DejaVuSansMono-20" x="361.230469"/>
     <use xlink:href="#DejaVuSansMono-38" x="421.435547"/>
    </g>
    <!-- Embedding Size: 128 -->
    <g transform="translate(121.392 212.75175) scale(0.12 -0.12)">
     <defs>
      <path id="DejaVuSansMono-45" d="M 616 4666 
L 3384 4666 
L 3384 4134 
L 1247 4134 
L 1247 2753 
L 3291 2753 
L 3291 2222 
L 1247 2222 
L 1247 531 
L 3444 531 
L 3444 0 
L 616 0 
L 616 4666 
z
" transform="scale(0.015625)"/>
      <path id="DejaVuSansMono-6d" d="M 2113 3144 
Q 2219 3369 2383 3476 
Q 2547 3584 2778 3584 
Q 3200 3584 3373 3257 
Q 3547 2931 3547 2028 
L 3547 0 
L 3022 0 
L 3022 2003 
Q 3022 2744 2939 2923 
Q 2856 3103 2638 3103 
Q 2388 3103 2295 2911 
Q 2203 2719 2203 2003 
L 2203 0 
L 1678 0 
L 1678 2003 
Q 1678 2753 1589 2928 
Q 1500 3103 1269 3103 
Q 1041 3103 952 2911 
Q 863 2719 863 2003 
L 863 0 
L 341 0 
L 341 3500 
L 863 3500 
L 863 3200 
Q 966 3388 1120 3486 
Q 1275 3584 1472 3584 
Q 1709 3584 1867 3475 
Q 2025 3366 2113 3144 
z
" transform="scale(0.015625)"/>
      <path id="DejaVuSansMono-62" d="M 2869 1747 
Q 2869 2416 2656 2756 
Q 2444 3097 2028 3097 
Q 1609 3097 1393 2755 
Q 1178 2413 1178 1747 
Q 1178 1084 1393 740 
Q 1609 397 2028 397 
Q 2444 397 2656 737 
Q 2869 1078 2869 1747 
z
M 1178 3053 
Q 1316 3309 1558 3446 
Q 1800 3584 2119 3584 
Q 2750 3584 3112 3098 
Q 3475 2613 3475 1759 
Q 3475 894 3111 401 
Q 2747 -91 2113 -91 
Q 1800 -91 1561 45 
Q 1322 181 1178 441 
L 1178 0 
L 603 0 
L 603 4863 
L 1178 4863 
L 1178 3053 
z
" transform="scale(0.015625)"/>
     </defs>
     <use xlink:href="#DejaVuSansMono-45"/>
     <use xlink:href="#DejaVuSansMono-6d" x="60.205078"/>
     <use xlink:href="#DejaVuSansMono-62" x="120.410156"/>
     <use xlink:href="#DejaVuSansMono-65" x="180.615234"/>
     <use xlink:href="#DejaVuSansMono-64" x="240.820312"/>
     <use xlink:href="#DejaVuSansMono-64" x="301.025391"/>
     <use xlink:href="#DejaVuSansMono-69" x="361.230469"/>
     <use xlink:href="#DejaVuSansMono-6e" x="421.435547"/>
     <use xlink:href="#DejaVuSansMono-67" x="481.640625"/>
     <use xlink:href="#DejaVuSansMono-20" x="541.845703"/>
     <use xlink:href="#DejaVuSansMono-53" x="602.050781"/>
     <use xlink:href="#DejaVuSansMono-69" x="662.255859"/>
     <use xlink:href="#DejaVuSansMono-7a" x="722.460938"/>
     <use xlink:href="#DejaVuSansMono-65" x="782.666016"/>
     <use xlink:href="#DejaVuSansMono-3a" x="842.871094"/>
     <use xlink:href="#DejaVuSansMono-20" x="903.076172"/>
     <use xlink:href="#DejaVuSansMono-31" x="963.28125"/>
     <use xlink:href="#DejaVuSansMono-32" x="1023.486328"/>
     <use xlink:href="#DejaVuSansMono-38" x="1083.691406"/>
    </g>
    <!-- Train Dataset Name: goodreads_data_1024_users_at_least_50.tsv -->
    <g transform="translate(121.392 226.348125) scale(0.12 -0.12)">
     <defs>
      <path id="DejaVuSansMono-44" d="M 1363 519 
Q 2159 519 2475 911 
Q 2791 1303 2791 2328 
Q 2791 3363 2477 3755 
Q 2163 4147 1363 4147 
L 1063 4147 
L 1063 519 
L 1363 519 
z
M 1375 4666 
Q 2444 4666 2950 4097 
Q 3456 3528 3456 2328 
Q 3456 1134 2950 567 
Q 2444 0 1375 0 
L 428 0 
L 428 4666 
L 1375 4666 
z
" transform="scale(0.015625)"/>
      <path id="DejaVuSansMono-4e" d="M 434 4666 
L 1234 4666 
L 2809 825 
L 2809 4666 
L 3419 4666 
L 3419 0 
L 2619 0 
L 1044 3841 
L 1044 0 
L 434 0 
L 434 4666 
z
" transform="scale(0.015625)"/>
      <path id="DejaVuSansMono-75" d="M 609 1325 
L 609 3494 
L 1184 3494 
L 1184 1325 
Q 1184 853 1351 631 
Q 1519 409 1869 409 
Q 2275 409 2490 695 
Q 2706 981 2706 1516 
L 2706 3494 
L 3284 3494 
L 3284 0 
L 2706 0 
L 2706 525 
Q 2553 222 2289 65 
Q 2025 -91 1672 -91 
Q 1134 -91 871 261 
Q 609 613 609 1325 
z
" transform="scale(0.015625)"/>
      <path id="DejaVuSansMono-2e" d="M 1528 953 
L 2316 953 
L 2316 0 
L 1528 0 
L 1528 953 
z
" transform="scale(0.015625)"/>
      <path id="DejaVuSansMono-76" d="M 313 3500 
L 909 3500 
L 1925 563 
L 2944 3500 
L 3541 3500 
L 2297 0 
L 1556 0 
L 313 3500 
z
" transform="scale(0.015625)"/>
     </defs>
     <use xlink:href="#DejaVuSansMono-54"/>
     <use xlink:href="#DejaVuSansMono-72" x="60.205078"/>
     <use xlink:href="#DejaVuSansMono-61" x="120.410156"/>
     <use xlink:href="#DejaVuSansMono-69" x="180.615234"/>
     <use xlink:href="#DejaVuSansMono-6e" x="240.820312"/>
     <use xlink:href="#DejaVuSansMono-20" x="301.025391"/>
     <use xlink:href="#DejaVuSansMono-44" x="361.230469"/>
     <use xlink:href="#DejaVuSansMono-61" x="421.435547"/>
     <use xlink:href="#DejaVuSansMono-74" x="481.640625"/>
     <use xlink:href="#DejaVuSansMono-61" x="541.845703"/>
     <use xlink:href="#DejaVuSansMono-73" x="602.050781"/>
     <use xlink:href="#DejaVuSansMono-65" x="662.255859"/>
     <use xlink:href="#DejaVuSansMono-74" x="722.460938"/>
     <use xlink:href="#DejaVuSansMono-20" x="782.666016"/>
     <use xlink:href="#DejaVuSansMono-4e" x="842.871094"/>
     <use xlink:href="#DejaVuSansMono-61" x="903.076172"/>
     <use xlink:href="#DejaVuSansMono-6d" x="963.28125"/>
     <use xlink:href="#DejaVuSansMono-65" x="1023.486328"/>
     <use xlink:href="#DejaVuSansMono-3a" x="1083.691406"/>
     <use xlink:href="#DejaVuSansMono-20" x="1143.896484"/>
     <use xlink:href="#DejaVuSansMono-67" x="1204.101562"/>
     <use xlink:href="#DejaVuSansMono-6f" x="1264.306641"/>
     <use xlink:href="#DejaVuSansMono-6f" x="1324.511719"/>
     <use xlink:href="#DejaVuSansMono-64" x="1384.716797"/>
     <use xlink:href="#DejaVuSansMono-72" x="1444.921875"/>
     <use xlink:href="#DejaVuSansMono-65" x="1505.126953"/>
     <use xlink:href="#DejaVuSansMono-61" x="1565.332031"/>
     <use xlink:href="#DejaVuSansMono-64" x="1625.537109"/>
     <use xlink:href="#DejaVuSansMono-73" x="1685.742188"/>
     <use xlink:href="#DejaVuSansMono-5f" x="1745.947266"/>
     <use xlink:href="#DejaVuSansMono-64" x="1806.152344"/>
     <use xlink:href="#DejaVuSansMono-61" x="1866.357422"/>
     <use xlink:href="#DejaVuSansMono-74" x="1926.5625"/>
     <use xlink:href="#DejaVuSansMono-61" x="1986.767578"/>
     <use xlink:href="#DejaVuSansMono-5f" x="2046.972656"/>
     <use xlink:href="#DejaVuSansMono-31" x="2107.177734"/>
     <use xlink:href="#DejaVuSansMono-30" x="2167.382812"/>
     <use xlink:href="#DejaVuSansMono-32" x="2227.587891"/>
     <use xlink:href="#DejaVuSansMono-34" x="2287.792969"/>
     <use xlink:href="#DejaVuSansMono-5f" x="2347.998047"/>
     <use xlink:href="#DejaVuSansMono-75" x="2408.203125"/>
     <use xlink:href="#DejaVuSansMono-73" x="2468.408203"/>
     <use xlink:href="#DejaVuSansMono-65" x="2528.613281"/>
     <use xlink:href="#DejaVuSansMono-72" x="2588.818359"/>
     <use xlink:href="#DejaVuSansMono-73" x="2649.023438"/>
     <use xlink:href="#DejaVuSansMono-5f" x="2709.228516"/>
     <use xlink:href="#DejaVuSansMono-61" x="2769.433594"/>
     <use xlink:href="#DejaVuSansMono-74" x="2829.638672"/>
     <use xlink:href="#DejaVuSansMono-5f" x="2889.84375"/>
     <use xlink:href="#DejaVuSansMono-6c" x="2950.048828"/>
     <use xlink:href="#DejaVuSansMono-65" x="3010.253906"/>
     <use xlink:href="#DejaVuSansMono-61" x="3070.458984"/>
     <use xlink:href="#DejaVuSansMono-73" x="3130.664062"/>
     <use xlink:href="#DejaVuSansMono-74" x="3190.869141"/>
     <use xlink:href="#DejaVuSansMono-5f" x="3251.074219"/>
     <use xlink:href="#DejaVuSansMono-35" x="3311.279297"/>
     <use xlink:href="#DejaVuSansMono-30" x="3371.484375"/>
     <use xlink:href="#DejaVuSansMono-2e" x="3431.689453"/>
     <use xlink:href="#DejaVuSansMono-74" x="3491.894531"/>
     <use xlink:href="#DejaVuSansMono-73" x="3552.099609"/>
     <use xlink:href="#DejaVuSansMono-76" x="3612.304688"/>
    </g>
    <!-- Train Dataset Size: 67963 -->
    <g transform="translate(121.392 240.19575) scale(0.12 -0.12)">
     <defs>
      <path id="DejaVuSansMono-37" d="M 434 4666 
L 3372 4666 
L 3372 4397 
L 1703 0 
L 1044 0 
L 2669 4134 
L 434 4134 
L 434 4666 
z
" transform="scale(0.015625)"/>
      <path id="DejaVuSansMono-39" d="M 1863 2069 
Q 2266 2069 2495 2359 
Q 2725 2650 2725 3163 
Q 2725 3675 2495 3965 
Q 2266 4256 1863 4256 
Q 1444 4256 1231 3979 
Q 1019 3703 1019 3163 
Q 1019 2619 1230 2344 
Q 1441 2069 1863 2069 
z
M 738 97 
L 738 678 
Q 934 563 1156 502 
Q 1378 441 1619 441 
Q 2219 441 2526 892 
Q 2834 1344 2834 2222 
Q 2688 1909 2422 1742 
Q 2156 1575 1813 1575 
Q 1138 1575 767 1990 
Q 397 2406 397 3169 
Q 397 3922 776 4336 
Q 1156 4750 1850 4750 
Q 2663 4750 3041 4165 
Q 3419 3581 3419 2328 
Q 3419 1150 2964 529 
Q 2509 -91 1644 -91 
Q 1416 -91 1184 -42 
Q 953 6 738 97 
z
" transform="scale(0.015625)"/>
     </defs>
     <use xlink:href="#DejaVuSansMono-54"/>
     <use xlink:href="#DejaVuSansMono-72" x="60.205078"/>
     <use xlink:href="#DejaVuSansMono-61" x="120.410156"/>
     <use xlink:href="#DejaVuSansMono-69" x="180.615234"/>
     <use xlink:href="#DejaVuSansMono-6e" x="240.820312"/>
     <use xlink:href="#DejaVuSansMono-20" x="301.025391"/>
     <use xlink:href="#DejaVuSansMono-44" x="361.230469"/>
     <use xlink:href="#DejaVuSansMono-61" x="421.435547"/>
     <use xlink:href="#DejaVuSansMono-74" x="481.640625"/>
     <use xlink:href="#DejaVuSansMono-61" x="541.845703"/>
     <use xlink:href="#DejaVuSansMono-73" x="602.050781"/>
     <use xlink:href="#DejaVuSansMono-65" x="662.255859"/>
     <use xlink:href="#DejaVuSansMono-74" x="722.460938"/>
     <use xlink:href="#DejaVuSansMono-20" x="782.666016"/>
     <use xlink:href="#DejaVuSansMono-53" x="842.871094"/>
     <use xlink:href="#DejaVuSansMono-69" x="903.076172"/>
     <use xlink:href="#DejaVuSansMono-7a" x="963.28125"/>
     <use xlink:href="#DejaVuSansMono-65" x="1023.486328"/>
     <use xlink:href="#DejaVuSansMono-3a" x="1083.691406"/>
     <use xlink:href="#DejaVuSansMono-20" x="1143.896484"/>
     <use xlink:href="#DejaVuSansMono-36" x="1204.101562"/>
     <use xlink:href="#DejaVuSansMono-37" x="1264.306641"/>
     <use xlink:href="#DejaVuSansMono-39" x="1324.511719"/>
     <use xlink:href="#DejaVuSansMono-36" x="1384.716797"/>
     <use xlink:href="#DejaVuSansMono-33" x="1444.921875"/>
    </g>
    <!-- Test Dataset Name: goodreads_data_1024_users.tsv -->
    <g transform="translate(121.392 253.709625) scale(0.12 -0.12)">
     <use xlink:href="#DejaVuSansMono-54"/>
     <use xlink:href="#DejaVuSansMono-65" x="60.205078"/>
     <use xlink:href="#DejaVuSansMono-73" x="120.410156"/>
     <use xlink:href="#DejaVuSansMono-74" x="180.615234"/>
     <use xlink:href="#DejaVuSansMono-20" x="240.820312"/>
     <use xlink:href="#DejaVuSansMono-44" x="301.025391"/>
     <use xlink:href="#DejaVuSansMono-61" x="361.230469"/>
     <use xlink:href="#DejaVuSansMono-74" x="421.435547"/>
     <use xlink:href="#DejaVuSansMono-61" x="481.640625"/>
     <use xlink:href="#DejaVuSansMono-73" x="541.845703"/>
     <use xlink:href="#DejaVuSansMono-65" x="602.050781"/>
     <use xlink:href="#DejaVuSansMono-74" x="662.255859"/>
     <use xlink:href="#DejaVuSansMono-20" x="722.460938"/>
     <use xlink:href="#DejaVuSansMono-4e" x="782.666016"/>
     <use xlink:href="#DejaVuSansMono-61" x="842.871094"/>
     <use xlink:href="#DejaVuSansMono-6d" x="903.076172"/>
     <use xlink:href="#DejaVuSansMono-65" x="963.28125"/>
     <use xlink:href="#DejaVuSansMono-3a" x="1023.486328"/>
     <use xlink:href="#DejaVuSansMono-20" x="1083.691406"/>
     <use xlink:href="#DejaVuSansMono-67" x="1143.896484"/>
     <use xlink:href="#DejaVuSansMono-6f" x="1204.101562"/>
     <use xlink:href="#DejaVuSansMono-6f" x="1264.306641"/>
     <use xlink:href="#DejaVuSansMono-64" x="1324.511719"/>
     <use xlink:href="#DejaVuSansMono-72" x="1384.716797"/>
     <use xlink:href="#DejaVuSansMono-65" x="1444.921875"/>
     <use xlink:href="#DejaVuSansMono-61" x="1505.126953"/>
     <use xlink:href="#DejaVuSansMono-64" x="1565.332031"/>
     <use xlink:href="#DejaVuSansMono-73" x="1625.537109"/>
     <use xlink:href="#DejaVuSansMono-5f" x="1685.742188"/>
     <use xlink:href="#DejaVuSansMono-64" x="1745.947266"/>
     <use xlink:href="#DejaVuSansMono-61" x="1806.152344"/>
     <use xlink:href="#DejaVuSansMono-74" x="1866.357422"/>
     <use xlink:href="#DejaVuSansMono-61" x="1926.5625"/>
     <use xlink:href="#DejaVuSansMono-5f" x="1986.767578"/>
     <use xlink:href="#DejaVuSansMono-31" x="2046.972656"/>
     <use xlink:href="#DejaVuSansMono-30" x="2107.177734"/>
     <use xlink:href="#DejaVuSansMono-32" x="2167.382812"/>
     <use xlink:href="#DejaVuSansMono-34" x="2227.587891"/>
     <use xlink:href="#DejaVuSansMono-5f" x="2287.792969"/>
     <use xlink:href="#DejaVuSansMono-75" x="2347.998047"/>
     <use xlink:href="#DejaVuSansMono-73" x="2408.203125"/>
     <use xlink:href="#DejaVuSansMono-65" x="2468.408203"/>
     <use xlink:href="#DejaVuSansMono-72" x="2528.613281"/>
     <use xlink:href="#DejaVuSansMono-73" x="2588.818359"/>
     <use xlink:href="#DejaVuSansMono-2e" x="2649.023438"/>
     <use xlink:href="#DejaVuSansMono-74" x="2709.228516"/>
     <use xlink:href="#DejaVuSansMono-73" x="2769.433594"/>
     <use xlink:href="#DejaVuSansMono-76" x="2829.638672"/>
    </g>
    <!-- Test Dataset Size: 25805 -->
    <g transform="translate(121.392 267.55725) scale(0.12 -0.12)">
     <use xlink:href="#DejaVuSansMono-54"/>
     <use xlink:href="#DejaVuSansMono-65" x="60.205078"/>
     <use xlink:href="#DejaVuSansMono-73" x="120.410156"/>
     <use xlink:href="#DejaVuSansMono-74" x="180.615234"/>
     <use xlink:href="#DejaVuSansMono-20" x="240.820312"/>
     <use xlink:href="#DejaVuSansMono-44" x="301.025391"/>
     <use xlink:href="#DejaVuSansMono-61" x="361.230469"/>
     <use xlink:href="#DejaVuSansMono-74" x="421.435547"/>
     <use xlink:href="#DejaVuSansMono-61" x="481.640625"/>
     <use xlink:href="#DejaVuSansMono-73" x="541.845703"/>
     <use xlink:href="#DejaVuSansMono-65" x="602.050781"/>
     <use xlink:href="#DejaVuSansMono-74" x="662.255859"/>
     <use xlink:href="#DejaVuSansMono-20" x="722.460938"/>
     <use xlink:href="#DejaVuSansMono-53" x="782.666016"/>
     <use xlink:href="#DejaVuSansMono-69" x="842.871094"/>
     <use xlink:href="#DejaVuSansMono-7a" x="903.076172"/>
     <use xlink:href="#DejaVuSansMono-65" x="963.28125"/>
     <use xlink:href="#DejaVuSansMono-3a" x="1023.486328"/>
     <use xlink:href="#DejaVuSansMono-20" x="1083.691406"/>
     <use xlink:href="#DejaVuSansMono-32" x="1143.896484"/>
     <use xlink:href="#DejaVuSansMono-35" x="1204.101562"/>
     <use xlink:href="#DejaVuSansMono-38" x="1264.306641"/>
     <use xlink:href="#DejaVuSansMono-30" x="1324.511719"/>
     <use xlink:href="#DejaVuSansMono-35" x="1384.716797"/>
    </g>
    <!-- Learning Rate: 0.0006 -->
    <g transform="translate(121.392 281.071125) scale(0.12 -0.12)">
     <defs>
      <path id="DejaVuSansMono-52" d="M 2375 2203 
Q 2619 2141 2791 1967 
Q 2963 1794 3219 1275 
L 3853 0 
L 3175 0 
L 2619 1178 
Q 2378 1681 2186 1826 
Q 1994 1972 1684 1972 
L 1081 1972 
L 1081 0 
L 447 0 
L 447 4666 
L 1747 4666 
Q 2516 4666 2925 4319 
Q 3334 3972 3334 3316 
Q 3334 2853 3082 2561 
Q 2831 2269 2375 2203 
z
M 1081 4147 
L 1081 2491 
L 1772 2491 
Q 2225 2491 2447 2694 
Q 2669 2897 2669 3316 
Q 2669 3719 2433 3933 
Q 2197 4147 1747 4147 
L 1081 4147 
z
" transform="scale(0.015625)"/>
     </defs>
     <use xlink:href="#DejaVuSansMono-4c"/>
     <use xlink:href="#DejaVuSansMono-65" x="60.205078"/>
     <use xlink:href="#DejaVuSansMono-61" x="120.410156"/>
     <use xlink:href="#DejaVuSansMono-72" x="180.615234"/>
     <use xlink:href="#DejaVuSansMono-6e" x="240.820312"/>
     <use xlink:href="#DejaVuSansMono-69" x="301.025391"/>
     <use xlink:href="#DejaVuSansMono-6e" x="361.230469"/>
     <use xlink:href="#DejaVuSansMono-67" x="421.435547"/>
     <use xlink:href="#DejaVuSansMono-20" x="481.640625"/>
     <use xlink:href="#DejaVuSansMono-52" x="541.845703"/>
     <use xlink:href="#DejaVuSansMono-61" x="602.050781"/>
     <use xlink:href="#DejaVuSansMono-74" x="662.255859"/>
     <use xlink:href="#DejaVuSansMono-65" x="722.460938"/>
     <use xlink:href="#DejaVuSansMono-3a" x="782.666016"/>
     <use xlink:href="#DejaVuSansMono-20" x="842.871094"/>
     <use xlink:href="#DejaVuSansMono-30" x="903.076172"/>
     <use xlink:href="#DejaVuSansMono-2e" x="963.28125"/>
     <use xlink:href="#DejaVuSansMono-30" x="1023.486328"/>
     <use xlink:href="#DejaVuSansMono-30" x="1083.691406"/>
     <use xlink:href="#DejaVuSansMono-30" x="1143.896484"/>
     <use xlink:href="#DejaVuSansMono-36" x="1204.101562"/>
    </g>
    <!-- Learning Rate Decay: False -->
    <g transform="translate(121.392 294.6675) scale(0.12 -0.12)">
     <defs>
      <path id="DejaVuSansMono-46" d="M 728 4666 
L 3475 4666 
L 3475 4134 
L 1363 4134 
L 1363 2759 
L 3278 2759 
L 3278 2228 
L 1363 2228 
L 1363 0 
L 728 0 
L 728 4666 
z
" transform="scale(0.015625)"/>
     </defs>
     <use xlink:href="#DejaVuSansMono-4c"/>
     <use xlink:href="#DejaVuSansMono-65" x="60.205078"/>
     <use xlink:href="#DejaVuSansMono-61" x="120.410156"/>
     <use xlink:href="#DejaVuSansMono-72" x="180.615234"/>
     <use xlink:href="#DejaVuSansMono-6e" x="240.820312"/>
     <use xlink:href="#DejaVuSansMono-69" x="301.025391"/>
     <use xlink:href="#DejaVuSansMono-6e" x="361.230469"/>
     <use xlink:href="#DejaVuSansMono-67" x="421.435547"/>
     <use xlink:href="#DejaVuSansMono-20" x="481.640625"/>
     <use xlink:href="#DejaVuSansMono-52" x="541.845703"/>
     <use xlink:href="#DejaVuSansMono-61" x="602.050781"/>
     <use xlink:href="#DejaVuSansMono-74" x="662.255859"/>
     <use xlink:href="#DejaVuSansMono-65" x="722.460938"/>
     <use xlink:href="#DejaVuSansMono-20" x="782.666016"/>
     <use xlink:href="#DejaVuSansMono-44" x="842.871094"/>
     <use xlink:href="#DejaVuSansMono-65" x="903.076172"/>
     <use xlink:href="#DejaVuSansMono-63" x="963.28125"/>
     <use xlink:href="#DejaVuSansMono-61" x="1023.486328"/>
     <use xlink:href="#DejaVuSansMono-79" x="1083.691406"/>
     <use xlink:href="#DejaVuSansMono-3a" x="1143.896484"/>
     <use xlink:href="#DejaVuSansMono-20" x="1204.101562"/>
     <use xlink:href="#DejaVuSansMono-46" x="1264.306641"/>
     <use xlink:href="#DejaVuSansMono-61" x="1324.511719"/>
     <use xlink:href="#DejaVuSansMono-6c" x="1384.716797"/>
     <use xlink:href="#DejaVuSansMono-73" x="1444.921875"/>
     <use xlink:href="#DejaVuSansMono-65" x="1505.126953"/>
    </g>
   </g>
   <g id="text_17">
    <!-- Training and Test Loss Over Epochs -->
    <g transform="translate(279.0475 63.12) scale(0.16 -0.16)">
     <defs>
      <path id="DejaVuSansMono-Bold-54" d="M 2388 0 
L 1466 0 
L 1466 3859 
L 281 3859 
L 281 4666 
L 3572 4666 
L 3572 3859 
L 2388 3859 
L 2388 0 
z
" transform="scale(0.015625)"/>
      <path id="DejaVuSansMono-Bold-72" d="M 3597 2534 
Q 3447 2672 3245 2740 
Q 3044 2809 2803 2809 
Q 2513 2809 2295 2707 
Q 2078 2606 1959 2413 
Q 1884 2294 1854 2125 
Q 1825 1956 1825 1613 
L 1825 0 
L 909 0 
L 909 3500 
L 1825 3500 
L 1825 2956 
Q 1959 3256 2237 3420 
Q 2516 3584 2888 3584 
Q 3075 3584 3254 3539 
Q 3434 3494 3597 3406 
L 3597 2534 
z
" transform="scale(0.015625)"/>
      <path id="DejaVuSansMono-Bold-61" d="M 2188 1644 
Q 1675 1644 1472 1512 
Q 1269 1381 1269 1063 
Q 1269 825 1409 684 
Q 1550 544 1791 544 
Q 2153 544 2353 817 
Q 2553 1091 2553 1581 
L 2553 1644 
L 2188 1644 
z
M 3463 1997 
L 3463 0 
L 2553 0 
L 2553 391 
Q 2388 159 2128 34 
Q 1869 -91 1556 -91 
Q 959 -91 626 225 
Q 294 541 294 1106 
Q 294 1719 691 2011 
Q 1088 2303 1919 2303 
L 2553 2303 
L 2553 2456 
Q 2553 2678 2392 2792 
Q 2231 2906 1919 2906 
Q 1591 2906 1283 2823 
Q 975 2741 641 2559 
L 641 3341 
Q 944 3466 1256 3525 
Q 1569 3584 1919 3584 
Q 2772 3584 3117 3237 
Q 3463 2891 3463 1997 
z
" transform="scale(0.015625)"/>
      <path id="DejaVuSansMono-Bold-69" d="M 691 3500 
L 2503 3500 
L 2503 703 
L 3641 703 
L 3641 0 
L 447 0 
L 447 703 
L 1588 703 
L 1588 2797 
L 691 2797 
L 691 3500 
z
M 1588 5203 
L 2503 5203 
L 2503 4134 
L 1588 4134 
L 1588 5203 
z
" transform="scale(0.015625)"/>
      <path id="DejaVuSansMono-Bold-6e" d="M 3347 2272 
L 3347 0 
L 2438 0 
L 2438 2131 
Q 2438 2513 2330 2677 
Q 2222 2841 1978 2841 
Q 1731 2841 1589 2619 
Q 1447 2397 1447 2003 
L 1447 0 
L 538 0 
L 538 3500 
L 1447 3500 
L 1447 2975 
Q 1544 3266 1778 3425 
Q 2013 3584 2344 3584 
Q 2841 3584 3094 3254 
Q 3347 2925 3347 2272 
z
" transform="scale(0.015625)"/>
      <path id="DejaVuSansMono-Bold-67" d="M 2509 1806 
Q 2509 2275 2331 2558 
Q 2153 2841 1863 2841 
Q 1575 2841 1398 2559 
Q 1222 2278 1222 1806 
Q 1222 1331 1398 1050 
Q 1575 769 1863 769 
Q 2153 769 2331 1051 
Q 2509 1334 2509 1806 
z
M 3425 263 
Q 3425 -578 3045 -951 
Q 2666 -1325 1813 -1325 
Q 1525 -1325 1244 -1283 
Q 963 -1241 672 -1153 
L 672 -313 
Q 931 -456 1200 -525 
Q 1469 -594 1753 -594 
Q 2141 -594 2325 -411 
Q 2509 -228 2509 159 
L 2509 538 
Q 2375 288 2153 166 
Q 1931 44 1613 44 
Q 1013 44 659 512 
Q 306 981 306 1784 
Q 306 2616 659 3103 
Q 1013 3591 1606 3591 
Q 1906 3591 2140 3450 
Q 2375 3309 2509 3053 
L 2509 3500 
L 3425 3500 
L 3425 263 
z
" transform="scale(0.015625)"/>
      <path id="DejaVuSansMono-Bold-20" transform="scale(0.015625)"/>
      <path id="DejaVuSansMono-Bold-64" d="M 2472 3003 
L 2472 4863 
L 3384 4863 
L 3384 0 
L 2472 0 
L 2472 519 
Q 2325 216 2092 62 
Q 1859 -91 1544 -91 
Q 944 -91 612 390 
Q 281 872 281 1747 
Q 281 2634 617 3109 
Q 953 3584 1575 3584 
Q 1856 3584 2079 3439 
Q 2303 3294 2472 3003 
z
M 1197 1741 
Q 1197 1234 1365 946 
Q 1534 659 1831 659 
Q 2128 659 2300 946 
Q 2472 1234 2472 1741 
Q 2472 2247 2300 2534 
Q 2128 2822 1831 2822 
Q 1534 2822 1365 2534 
Q 1197 2247 1197 1741 
z
" transform="scale(0.015625)"/>
      <path id="DejaVuSansMono-Bold-65" d="M 3444 172 
Q 3125 41 2794 -25 
Q 2463 -91 2094 -91 
Q 1216 -91 752 379 
Q 288 850 288 1734 
Q 288 2591 734 3087 
Q 1181 3584 1953 3584 
Q 2731 3584 3161 3123 
Q 3591 2663 3591 1825 
L 3591 1453 
L 1219 1453 
Q 1222 1041 1462 837 
Q 1703 634 2181 634 
Q 2497 634 2803 725 
Q 3109 816 3444 1013 
L 3444 172 
z
M 2669 2141 
Q 2663 2503 2483 2689 
Q 2303 2875 1953 2875 
Q 1638 2875 1450 2683 
Q 1263 2491 1228 2138 
L 2669 2141 
z
" transform="scale(0.015625)"/>
      <path id="DejaVuSansMono-Bold-74" d="M 2156 4494 
L 2156 3500 
L 3353 3500 
L 3353 2797 
L 2156 2797 
L 2156 1141 
Q 2156 906 2270 804 
Q 2384 703 2650 703 
L 3353 703 
L 3353 0 
L 2584 0 
Q 1797 0 1519 251 
Q 1241 503 1241 1184 
L 1241 2797 
L 347 2797 
L 347 3500 
L 1241 3500 
L 1241 4494 
L 2156 4494 
z
" transform="scale(0.015625)"/>
      <path id="DejaVuSansMono-Bold-4f" d="M 1925 3922 
Q 1572 3922 1409 3545 
Q 1247 3169 1247 2328 
Q 1247 1491 1409 1114 
Q 1572 738 1925 738 
Q 2281 738 2443 1114 
Q 2606 1491 2606 2328 
Q 2606 3169 2443 3545 
Q 2281 3922 1925 3922 
z
M 288 2328 
Q 288 3525 702 4137 
Q 1116 4750 1925 4750 
Q 2738 4750 3152 4137 
Q 3566 3525 3566 2328 
Q 3566 1134 3152 521 
Q 2738 -91 1925 -91 
Q 1116 -91 702 521 
Q 288 1134 288 2328 
z
" transform="scale(0.015625)"/>
      <path id="DejaVuSansMono-Bold-76" d="M 3603 3500 
L 2491 0 
L 1363 0 
L 250 3500 
L 1178 3500 
L 1925 769 
L 2675 3500 
L 3603 3500 
z
" transform="scale(0.015625)"/>
     </defs>
     <use xlink:href="#DejaVuSansMono-Bold-54"/>
     <use xlink:href="#DejaVuSansMono-Bold-72" x="60.205078"/>
     <use xlink:href="#DejaVuSansMono-Bold-61" x="120.410156"/>
     <use xlink:href="#DejaVuSansMono-Bold-69" x="180.615234"/>
     <use xlink:href="#DejaVuSansMono-Bold-6e" x="240.820312"/>
     <use xlink:href="#DejaVuSansMono-Bold-69" x="301.025391"/>
     <use xlink:href="#DejaVuSansMono-Bold-6e" x="361.230469"/>
     <use xlink:href="#DejaVuSansMono-Bold-67" x="421.435547"/>
     <use xlink:href="#DejaVuSansMono-Bold-20" x="481.640625"/>
     <use xlink:href="#DejaVuSansMono-Bold-61" x="541.845703"/>
     <use xlink:href="#DejaVuSansMono-Bold-6e" x="602.050781"/>
     <use xlink:href="#DejaVuSansMono-Bold-64" x="662.255859"/>
     <use xlink:href="#DejaVuSansMono-Bold-20" x="722.460938"/>
     <use xlink:href="#DejaVuSansMono-Bold-54" x="782.666016"/>
     <use xlink:href="#DejaVuSansMono-Bold-65" x="842.871094"/>
     <use xlink:href="#DejaVuSansMono-Bold-73" x="903.076172"/>
     <use xlink:href="#DejaVuSansMono-Bold-74" x="963.28125"/>
     <use xlink:href="#DejaVuSansMono-Bold-20" x="1023.486328"/>
     <use xlink:href="#DejaVuSansMono-Bold-4c" x="1083.691406"/>
     <use xlink:href="#DejaVuSansMono-Bold-6f" x="1143.896484"/>
     <use xlink:href="#DejaVuSansMono-Bold-73" x="1204.101562"/>
     <use xlink:href="#DejaVuSansMono-Bold-73" x="1264.306641"/>
     <use xlink:href="#DejaVuSansMono-Bold-20" x="1324.511719"/>
     <use xlink:href="#DejaVuSansMono-Bold-4f" x="1384.716797"/>
     <use xlink:href="#DejaVuSansMono-Bold-76" x="1444.921875"/>
     <use xlink:href="#DejaVuSansMono-Bold-65" x="1505.126953"/>
     <use xlink:href="#DejaVuSansMono-Bold-72" x="1565.332031"/>
     <use xlink:href="#DejaVuSansMono-Bold-20" x="1625.537109"/>
     <use xlink:href="#DejaVuSansMono-Bold-45" x="1685.742188"/>
     <use xlink:href="#DejaVuSansMono-Bold-70" x="1745.947266"/>
     <use xlink:href="#DejaVuSansMono-Bold-6f" x="1806.152344"/>
     <use xlink:href="#DejaVuSansMono-Bold-63" x="1866.357422"/>
     <use xlink:href="#DejaVuSansMono-Bold-68" x="1926.5625"/>
     <use xlink:href="#DejaVuSansMono-Bold-73" x="1986.767578"/>
    </g>
   </g>
   <g id="legend_1">
    <g id="patch_8">
     <path d="M 116.4 114.1575 
L 248.716875 114.1575 
Q 251.116875 114.1575 251.116875 111.7575 
L 251.116875 77.52 
Q 251.116875 75.12 248.716875 75.12 
L 116.4 75.12 
Q 114 75.12 114 77.52 
L 114 111.7575 
Q 114 114.1575 116.4 114.1575 
z
" style="fill: #ffffff; opacity: 0.8; stroke: #cccccc; stroke-linejoin: miter"/>
    </g>
    <g id="line2d_29">
     <path d="M 118.8 84.901875 
L 130.8 84.901875 
L 142.8 84.901875 
" style="fill: none; stroke: #0000ff; stroke-width: 1.5; stroke-linecap: square"/>
    </g>
    <g id="text_18">
     <!-- Training Loss -->
     <g transform="translate(152.4 89.101875) scale(0.12 -0.12)">
      <use xlink:href="#DejaVuSansMono-54"/>
      <use xlink:href="#DejaVuSansMono-72" x="60.205078"/>
      <use xlink:href="#DejaVuSansMono-61" x="120.410156"/>
      <use xlink:href="#DejaVuSansMono-69" x="180.615234"/>
      <use xlink:href="#DejaVuSansMono-6e" x="240.820312"/>
      <use xlink:href="#DejaVuSansMono-69" x="301.025391"/>
      <use xlink:href="#DejaVuSansMono-6e" x="361.230469"/>
      <use xlink:href="#DejaVuSansMono-67" x="421.435547"/>
      <use xlink:href="#DejaVuSansMono-20" x="481.640625"/>
      <use xlink:href="#DejaVuSansMono-4c" x="541.845703"/>
      <use xlink:href="#DejaVuSansMono-6f" x="602.050781"/>
      <use xlink:href="#DejaVuSansMono-73" x="662.255859"/>
      <use xlink:href="#DejaVuSansMono-73" x="722.460938"/>
     </g>
    </g>
    <g id="line2d_30">
     <path d="M 118.8 102.661875 
L 130.8 102.661875 
L 142.8 102.661875 
" style="fill: none; stroke: #ffa500; stroke-width: 1.5; stroke-linecap: square"/>
    </g>
    <g id="text_19">
     <!-- Test Loss -->
     <g transform="translate(152.4 106.861875) scale(0.12 -0.12)">
      <use xlink:href="#DejaVuSansMono-54"/>
      <use xlink:href="#DejaVuSansMono-65" x="60.205078"/>
      <use xlink:href="#DejaVuSansMono-73" x="120.410156"/>
      <use xlink:href="#DejaVuSansMono-74" x="180.615234"/>
      <use xlink:href="#DejaVuSansMono-20" x="240.820312"/>
      <use xlink:href="#DejaVuSansMono-4c" x="301.025391"/>
      <use xlink:href="#DejaVuSansMono-6f" x="361.230469"/>
      <use xlink:href="#DejaVuSansMono-73" x="421.435547"/>
      <use xlink:href="#DejaVuSansMono-73" x="481.640625"/>
     </g>
    </g>
   </g>
  </g>
 </g>
 <defs>
  <clipPath id="p55973f6037">
   <rect x="108" y="69.12" width="669.6" height="443.52"/>
  </clipPath>
 </defs>
</svg>
